
<svg xmlns="http://www.w3.org/2000/svg" viewBox="0 0 55 55">
	<style type="text/css">
		.st0{fill:#250074;filter:url(#defapp-filter-1);}
		.st1{fill:url(#SVGID_1_);}
		.st2{fill:url(#SVGID_2_);}
		.st3{fill:url(#SVGID_3_);}
		.st4{fill:url(#SVGID_4_);}
		.st5{fill:url(#SVGID_5_);}
		.st6{fill:url(#SVGID_6_);}
		.st7{fill:url(#SVGID_7_);}
		.st8{fill:url(#SVGID_8_);}
		.st9{fill:url(#SVGID_9_);}
		.st10{fill:url(#SVGID_10_);}
		.st11{fill:url(#SVGID_11_);}
		.st12{fill:url(#SVGID_12_);}
		.st13{fill:url(#SVGID_13_);}
		.st14{fill:url(#SVGID_14_);}
		.st15{fill:url(#SVGID_15_);}
		.st16{fill:url(#SVGID_16_);}
		.st17{fill:url(#SVGID_17_);}
		.st18{fill:url(#SVGID_18_);}
		.st19{fill:url(#SVGID_19_);}
		.st20{opacity:0.74;fill:url(#SVGID_20_);enable-background:new    ;}
		.st21{opacity:0.74;fill:url(#SVGID_21_);enable-background:new    ;}
		.st22{opacity:0.74;fill:url(#SVGID_22_);enable-background:new    ;}
		.st23{opacity:0.74;fill:url(#SVGID_23_);enable-background:new    ;}
		.st24{fill:none;stroke:#250074;stroke-width:0.5;stroke-miterlimit:10;}
		.st25{fill:url(#SVGID_24_);}
		.st26{fill:url(#SVGID_25_);}
		.st27{fill:url(#SVGID_26_);}
		.st28{fill:url(#SVGID_27_);}
	</style>
	<filter filterUnits="objectBoundingBox" id="defapp-filter-1">
		<feOffset dx="0" dy="1.4" in="SourceAlpha" result="defappShadowOffsetOuter1"></feOffset>
		<feGaussianBlur stdDeviation="1.4" in="defappShadowOffsetOuter1" result="defappShadowBlurOuter1"></feGaussianBlur>
		<feColorMatrix values="0 0 0 0 0   0 0 0 0 0   0 0 0 0 0  0 0 0 0.75 0" type="matrix" in="defappShadowBlurOuter1" result="defappShadowMatrixOuter1"></feColorMatrix>
		<feMerge>
			<feMergeNode in="defappShadowMatrixOuter1"/>
			<feMergeNode in="SourceGraphic"/>
		</feMerge>
	</filter>
	<polygon id="bg" class="st0" points="3.1,18.5 12.4,5.6 15.3,3.5 27.4,0.5 39.8,3.4 43.5,5.6 52.4,17.8 51.8,33 50.1,37.4 
		40.6,48.4 33.7,50.7 23.9,51.2 15.9,48.8 3.6,33.9 "/>
	<linearGradient id="SVGID_1_" gradientUnits="userSpaceOnUse" x1="12.0782" y1="52.622" x2="27.7251" y2="52.622" gradientTransform="matrix(1 0 0 -1 0 55.8898)">
		<stop  offset="0" style="stop-color:#5C08D8"/>
		<stop  offset="1" style="stop-color:#4B0FBD"/>
	</linearGradient>
	<polygon class="st1" points="27.7,0.6 15.2,3.5 12.1,5.9 "/>
	<linearGradient id="SVGID_2_" gradientUnits="userSpaceOnUse" x1="12.0782" y1="51.4963" x2="27.7251" y2="51.4963" gradientTransform="matrix(1 0 0 -1 0 55.8898)">
		<stop  offset="0" style="stop-color:#810FFA"/>
		<stop  offset="1" style="stop-color:#8D0CF2"/>
	</linearGradient>
	<polygon class="st2" points="15.5,8.2 12.1,5.9 27.7,0.6 "/>
	<linearGradient id="SVGID_3_" gradientUnits="userSpaceOnUse" x1="15.407" y1="50.7646" x2="27.7453" y2="50.7646" gradientTransform="matrix(1 0 0 -1 0 55.8898)">
		<stop  offset="3.245253e-03" style="stop-color:#9D15FF"/>
		<stop  offset="0.5013" style="stop-color:#BA17FE"/>
		<stop  offset="0.9994" style="stop-color:#B412F9"/>
	</linearGradient>
	<polygon class="st3" points="23.7,9.6 15.5,8.2 27.7,0.6 "/>
	<linearGradient id="SVGID_4_" gradientUnits="userSpaceOnUse" x1="26.8232" y1="50.2172" x2="31.7904" y2="47.7985" gradientTransform="matrix(1 0 0 -1 0 55.8898)">
		<stop  offset="3.245253e-03" style="stop-color:#F359F7"/>
		<stop  offset="0.3315" style="stop-color:#F457FE"/>
		<stop  offset="0.4805" style="stop-color:#ED4FFE"/>
		<stop  offset="0.7117" style="stop-color:#D839FD"/>
		<stop  offset="0.9948" style="stop-color:#B816FC"/>
		<stop  offset="0.9994" style="stop-color:#B715FC"/>
	</linearGradient>
	<polygon class="st4" points="33,9.3 23.7,9.6 27.7,0.6 "/>
	<linearGradient id="SVGID_5_" gradientUnits="userSpaceOnUse" x1="27.7453" y1="50.9334" x2="41.2774" y2="50.9334" gradientTransform="matrix(1 0 0 -1 0 55.8898)">
		<stop  offset="0" style="stop-color:#D020FC"/>
		<stop  offset="0.5013" style="stop-color:#F83FFF"/>
		<stop  offset="0.9978" style="stop-color:#EF20FF"/>
	</linearGradient>
	<polygon class="st5" points="41.2,7.7 27.7,0.6 33,9.3 "/>
	<linearGradient id="SVGID_6_" gradientUnits="userSpaceOnUse" x1="27.7453" y1="51.7214" x2="43.3338" y2="51.7214" gradientTransform="matrix(1 0 0 -1 0 55.8898)">
		<stop  offset="2.331206e-03" style="stop-color:#C517FF"/>
		<stop  offset="0.5013" style="stop-color:#DE16FD"/>
		<stop  offset="0.9994" style="stop-color:#BD0CF2"/>
	</linearGradient>
	<polygon class="st6" points="43.4,5.1 41.2,7.7 27.7,0.6 39.9,3.2 "/>
	<linearGradient id="SVGID_7_" gradientUnits="userSpaceOnUse" x1="11.6794" y1="47.7832" x2="4.1964" y2="32.9475" gradientTransform="matrix(1 0 0 -1 0 55.8898)">
		<stop  offset="0" style="stop-color:#6A07DE"/>
		<stop  offset="0.5013" style="stop-color:#7008E1"/>
		<stop  offset="0.9978" style="stop-color:#5C04D5"/>
	</linearGradient>
	<polygon class="st7" points="15.5,8.2 7.5,23.2 2.7,18.3 12.1,5.9 "/>
	<linearGradient id="SVGID_8_" gradientUnits="userSpaceOnUse" x1="15.1743" y1="47.0636" x2="16.0573" y2="29.9811" gradientTransform="matrix(1 0 0 -1 0 55.8898)">
		<stop  offset="0" style="stop-color:#7D0DEB"/>
		<stop  offset="0.5013" style="stop-color:#930EF5"/>
		<stop  offset="1" style="stop-color:#AB10FF"/>
	</linearGradient>
	<polygon class="st8" points="7.5,23.2 20.6,26.2 23.7,9.6 15.5,8.2 "/>
	<linearGradient id="SVGID_9_" gradientUnits="userSpaceOnUse" x1="23.432" y1="42.1141" x2="33.6383" y2="30.2094" gradientTransform="matrix(1 0 0 -1 0 55.8898)">
		<stop  offset="3.245253e-03" style="stop-color:#FFC3FF"/>
		<stop  offset="0.493" style="stop-color:#F2DAF2"/>
		<stop  offset="0.9994" style="stop-color:#F7D4F5"/>
	</linearGradient>
	<polygon class="st9" points="20.6,26.2 37.6,25.7 33,9.3 23.7,9.6 "/>
	<linearGradient id="SVGID_10_" gradientUnits="userSpaceOnUse" x1="34.4068" y1="47.4444" x2="44.6853" y2="30.521" gradientTransform="matrix(1 0 0 -1 0 55.8898)">
		<stop  offset="0" style="stop-color:#F55EF9"/>
		<stop  offset="0.5013" style="stop-color:#E84BFA"/>
		<stop  offset="1" style="stop-color:#DA2EF2"/>
	</linearGradient>
	<polygon class="st10" points="37.6,25.7 49.6,22.5 41.2,7.7 33,9.3 "/>
	<linearGradient id="SVGID_11_" gradientUnits="userSpaceOnUse" x1="43.0874" y1="48.8652" x2="51.0722" y2="35.7183" gradientTransform="matrix(1 0 0 -1 0 55.8898)">
		<stop  offset="0" style="stop-color:#C312FE"/>
		<stop  offset="0.5013" style="stop-color:#B70EFF"/>
		<stop  offset="1" style="stop-color:#A40CFD"/>
	</linearGradient>
	<polygon class="st11" points="49.6,22.5 52.5,17.7 43.4,5.1 41.2,7.7 "/>
	<linearGradient id="SVGID_12_" gradientUnits="userSpaceOnUse" x1="50.7024" y1="32.724" x2="51.1653" y2="18.7392" gradientTransform="matrix(1 0 0 -1 0 55.8898)">
		<stop  offset="3.244868e-03" style="stop-color:#4A02CE"/>
		<stop  offset="0.493" style="stop-color:#6D03D9"/>
		<stop  offset="0.8149" style="stop-color:#7507D6"/>
		<stop  offset="0.9978" style="stop-color:#7C0AD4"/>
	</linearGradient>
	<polygon class="st12" points="51.9,32.8 52.5,17.7 49.6,22.5 49.2,38 50.1,37.4 "/>
	<linearGradient id="SVGID_13_" gradientUnits="userSpaceOnUse" x1="37.5464" y1="30.0844" x2="49.1513" y2="17.8243" gradientTransform="matrix(1 0 0 -1 0 55.8898)">
		<stop  offset="3.245058e-03" style="stop-color:#D520FB"/>
		<stop  offset="0.493" style="stop-color:#9B10FF"/>
		<stop  offset="0.831" style="stop-color:#9E18FD"/>
		<stop  offset="0.9978" style="stop-color:#A01EFC"/>
	</linearGradient>
	<polygon class="st13" points="37.6,25.7 37.6,41.9 49.2,38 49.6,22.5 "/>
	<linearGradient id="SVGID_14_" gradientUnits="userSpaceOnUse" x1="38.421" y1="15.5919" x2="42.6771" y2="10.0877" gradientTransform="matrix(1 0 0 -1 0 55.8898)">
		<stop  offset="3.245253e-03" style="stop-color:#3E00B0"/>
		<stop  offset="0.493" style="stop-color:#7003DB"/>
		<stop  offset="0.593" style="stop-color:#7805DE"/>
		<stop  offset="0.7483" style="stop-color:#8E09E5"/>
		<stop  offset="0.9383" style="stop-color:#B110F0"/>
		<stop  offset="0.9978" style="stop-color:#BE12F4"/>
	</linearGradient>
	<polygon class="st14" points="40.8,48.1 49.2,38 37.6,41.9 33.8,50.6 "/>
	<linearGradient id="SVGID_15_" gradientUnits="userSpaceOnUse" x1="29.2395" y1="12.0063" x2="28.9998" y2="5.0747" gradientTransform="matrix(1 0 0 -1 0 55.8898)">
		<stop  offset="3.245253e-03" style="stop-color:#3E00B0"/>
		<stop  offset="0.493" style="stop-color:#7003DB"/>
		<stop  offset="0.593" style="stop-color:#7805DE"/>
		<stop  offset="0.7483" style="stop-color:#8E09E5"/>
		<stop  offset="0.9383" style="stop-color:#B110F0"/>
		<stop  offset="0.9978" style="stop-color:#BE12F4"/>
	</linearGradient>
	<polygon class="st15" points="33.8,50.6 23.7,50.9 21,42.3 37.6,41.9 "/>
	<linearGradient id="SVGID_16_" gradientUnits="userSpaceOnUse" x1="7.7494" y1="17.4231" x2="25.4447" y2="5.4661" gradientTransform="matrix(1 0 0 -1 0 55.8898)">
		<stop  offset="3.245253e-03" style="stop-color:#2601A7"/>
		<stop  offset="0.493" style="stop-color:#C004FF"/>
		<stop  offset="0.5571" style="stop-color:#B804FA"/>
		<stop  offset="0.6565" style="stop-color:#A204EE"/>
		<stop  offset="0.7789" style="stop-color:#7E04D9"/>
		<stop  offset="0.9181" style="stop-color:#4D04BD"/>
		<stop  offset="0.9994" style="stop-color:#2D04AA"/>
	</linearGradient>
	<polygon class="st16" points="15.5,48.8 23.7,51.1 21,42.3 7.5,38.8 "/>
	<linearGradient id="SVGID_17_" gradientUnits="userSpaceOnUse" x1="4.6765" y1="33.868" x2="6.3237" y2="20.4913" gradientTransform="matrix(1 0 0 -1 0 55.8898)">
		<stop  offset="0" style="stop-color:#2F1077"/>
		<stop  offset="0.5013" style="stop-color:#4201B7"/>
		<stop  offset="0.9978" style="stop-color:#3A03C1"/>
	</linearGradient>
	<polygon class="st17" points="3.5,34.1 7.5,38.8 7.9,38.8 7.5,23.2 2.7,18.3 "/>
	<linearGradient id="SVGID_18_" gradientUnits="userSpaceOnUse" x1="22.6164" y1="28.953" x2="36.3454" y2="14.4488" gradientTransform="matrix(1 0 0 -1 0 55.8898)">
		<stop  offset="3.245253e-03" style="stop-color:#970AED"/>
		<stop  offset="0.493" style="stop-color:#7A0BE3"/>
		<stop  offset="0.6696" style="stop-color:#820CE9"/>
		<stop  offset="0.9429" style="stop-color:#980EFA"/>
		<stop  offset="0.9978" style="stop-color:#9D0EFE"/>
	</linearGradient>
	<polygon class="st18" points="37.6,25.7 37.6,41.9 21,42.3 20.6,26.2 "/>
	<linearGradient id="SVGID_19_" gradientUnits="userSpaceOnUse" x1="7.2178" y1="32.5116" x2="21.5262" y2="14.0076" gradientTransform="matrix(1 0 0 -1 0 55.8898)">
		<stop  offset="3.245253e-03" style="stop-color:#3E00B0"/>
		<stop  offset="0.493" style="stop-color:#7003DB"/>
		<stop  offset="0.593" style="stop-color:#7805DE"/>
		<stop  offset="0.7483" style="stop-color:#8E09E5"/>
		<stop  offset="0.9383" style="stop-color:#B110F0"/>
		<stop  offset="0.9978" style="stop-color:#BE12F4"/>
	</linearGradient>
	<polygon class="st19" points="21,42.3 20.6,26.2 7.5,23.2 7.9,38.7 8.1,39.1 "/>
	<radialGradient id="SVGID_20_" cx="20.9148" cy="31.4029" r="5.971" gradientTransform="matrix(1 0 0 -1 0 55.8898)" gradientUnits="userSpaceOnUse">
		<stop  offset="3.244868e-03" style="stop-color:#FFFFFF"/>
		<stop  offset="0.6238" style="stop-color:#FEF9FD;stop-opacity:0.5632"/>
		<stop  offset="0.9978" style="stop-color:#FDF3FB;stop-opacity:0.3"/>
	</radialGradient>
	<polygon class="st20" points="15.9,25 20,26.7 20.7,31.2 21.3,26.6 25.9,26 21.3,25.4 22.2,17.7 20.1,25.4 "/>
	<radialGradient id="SVGID_21_" cx="38.2843" cy="29.8129" r="6.8379" gradientTransform="matrix(1 0 0 -1 0 55.8898)" gradientUnits="userSpaceOnUse">
		<stop  offset="3.244868e-03" style="stop-color:#FFFFFF"/>
		<stop  offset="0.6238" style="stop-color:#FEF9FD;stop-opacity:0.5632"/>
		<stop  offset="0.9978" style="stop-color:#FDF3FB;stop-opacity:0.3"/>
	</radialGradient>
	<polygon class="st21" points="33.5,25.8 37.1,26.2 37.5,34.5 38.2,26.1 43.1,24.1 38.1,25.2 35.4,17.7 36.8,25.4 "/>
	<radialGradient id="SVGID_22_" cx="21.2525" cy="15.3507" r="3.8124" gradientTransform="matrix(1 0 0 -1 0 55.8898)" gradientUnits="userSpaceOnUse">
		<stop  offset="3.244868e-03" style="stop-color:#FFFFFF"/>
		<stop  offset="0.6238" style="stop-color:#FEF9FD;stop-opacity:0.5632"/>
		<stop  offset="0.9978" style="stop-color:#FDF3FB;stop-opacity:0.3"/>
	</radialGradient>
	<polygon class="st22" points="17.4,41.5 20.6,42.6 21.5,44.3 21.4,42.7 25.1,42.2 21.2,41.8 20.6,36.9 20.5,41.6 "/>
	<radialGradient id="SVGID_23_" cx="37.8932" cy="13.3628" r="4.3246" gradientTransform="matrix(1 0 0 -1 0 55.8898)" gradientUnits="userSpaceOnUse">
		<stop  offset="3.244868e-03" style="stop-color:#FFFFFF"/>
		<stop  offset="0.6238" style="stop-color:#FEF9FD;stop-opacity:0.5632"/>
		<stop  offset="0.9978" style="stop-color:#FDF3FB;stop-opacity:0.3"/>
	</radialGradient>
	<polygon class="st23" points="33,42 37,42.3 35.7,46.2 37.9,42.3 42.7,40.2 37.9,41.4 37.6,38.8 37.3,41.7 "/>
	<polygon class="st24" points="3.1,18.5 12.4,5.6 15.3,3.5 27.4,0.5 39.8,3.4 43.5,5.6 52.4,17.8 51.8,33 50.1,37.4 40.6,48.4 
		33.7,50.7 23.9,51.2 15.9,48.8 3.6,33.9 "/>
	<radialGradient id="SVGID_24_" cx="-74.8015" cy="656.0734" r="7.0006" gradientTransform="matrix(1.2359 1.039058e-02 -1.015497e-02 1.2079 123.0506 -781.9682)" gradientUnits="userSpaceOnUse">
		<stop  offset="9.895546e-02" style="stop-color:#FCFCFC"/>
		<stop  offset="1" style="stop-color:#FFFFFF;stop-opacity:0"/>
	</radialGradient>
	<path class="st25" d="M28.7,9.9c-1.1,0-2.1-0.5-2.9-1.1c0.2-0.5,0.5-0.8,0.8-1.1L29.3,5l0,0l-0.1-0.1l-2.7,2.6
		c-0.3,0.3-0.8,0.6-1.1,0.8c-0.6-0.8-0.9-1.7-0.9-2.6V1.1l0,0c-0.1,0-0.1,0-0.2,0v4.5c0,1-0.5,2-1,2.7c-0.6-0.1-1.1-0.5-1.6-0.9
		l-2.3-2.3l-0.1,0.1l2.3,2.3C22,7.9,22.2,8.4,22.4,9c-0.7,0.5-1.6,0.8-2.6,0.8h-3.9c0,0.1,0,0.2,0,0.2h3.9c0.9,0,1.8,0.3,2.6,0.8
		c-0.1,0.6-0.5,1.1-0.9,1.5l-2.4,2.4l0.1,0.1l0,0l2.5-2.4c0.5-0.5,1-0.7,1.6-0.9c0.6,0.8,1,1.7,1,2.7v4.2c0.1,0,0.1,0,0.2,0l0,0v-4.2
		c0-1,0.3-1.8,0.9-2.6c0.5,0.2,0.9,0.5,1.2,0.8l2,1.9l0.1-0.1l-2-1.9c-0.3-0.3-0.7-0.8-0.8-1.2c0.8-0.7,1.8-1.1,2.9-1.1h3.5
		c0-0.1,0-0.2,0-0.2L28.7,9.9z"/>
	<radialGradient id="SVGID_25_" cx="246.4905" cy="622.2253" r="3.0938" gradientTransform="matrix(0.9615 0.2747 -0.2747 0.9615 -16.7478 -643.6561)" gradientUnits="userSpaceOnUse">
		<stop  offset="9.895546e-02" style="stop-color:#FCFCFC"/>
		<stop  offset="1" style="stop-color:#FFFFFF;stop-opacity:0"/>
	</radialGradient>
	<path class="st26" d="M50.9,22.9c-0.3-0.1-0.7-0.3-0.9-0.7c0.1-0.1,0.2-0.2,0.3-0.3l1.1-0.7l0,0c0,0,0,0,0-0.1l-1.1,0.7
		c-0.1,0.1-0.3,0.1-0.5,0.1c-0.1-0.3-0.1-0.7-0.1-1l0.5-1.6l0,0h-0.1l-0.5,1.6c-0.1,0.3-0.3,0.7-0.7,0.9c-0.2-0.1-0.3-0.2-0.5-0.5
		l-0.5-1c0,0,0,0-0.1,0l0.6,1c0.1,0.2,0.1,0.5,0.1,0.6c-0.3,0.1-0.7,0.1-0.9,0l-1.4-0.3v0.1l1.4,0.3c0.3,0.1,0.6,0.3,0.8,0.6
		c-0.1,0.2-0.2,0.3-0.5,0.5l-1,0.7c0,0,0,0,0,0.1l0,0l1-0.6c0.2-0.1,0.5-0.1,0.7-0.1c0.1,0.3,0.2,0.7,0.1,1l-0.5,1.5c0,0,0,0,0.1,0
		l0,0l0.5-1.5c0.1-0.3,0.3-0.6,0.6-0.8c0.1,0.1,0.2,0.2,0.3,0.3l0.5,0.9c0,0,0,0,0.1,0L50,23.7c-0.1-0.1-0.1-0.3-0.1-0.6
		C50.1,22.9,50.6,22.9,50.9,22.9l1.1,0.5v-0.1L50.9,22.9z"/>
	<radialGradient id="SVGID_26_" cx="83.6283" cy="762.8096" r="2.4899" gradientTransform="matrix(0.9987 5.071132e-02 -5.071132e-02 0.9987 -3.3307 -758.3965)" gradientUnits="userSpaceOnUse">
		<stop  offset="9.895546e-02" style="stop-color:#FCFCFC"/>
		<stop  offset="1" style="stop-color:#FFFFFF;stop-opacity:0"/>
	</radialGradient>
	<path class="st27" d="M42.9,7.8c-0.3,0-0.6-0.1-0.8-0.3c0-0.1,0.1-0.2,0.2-0.3l0.8-0.7l0,0l0,0l-0.8,0.7c-0.2,0-0.3,0-0.5,0.1
		c-0.1-0.2-0.2-0.5-0.2-0.8l0.1-1.4l0,0c0,0,0,0-0.1,0l-0.1,1.4c0,0.3-0.1,0.6-0.3,0.8c-0.1,0-0.3-0.1-0.5-0.2l-0.6-0.7l0,0L40.8,7
		C40.9,7.2,41,7.4,41,7.5c-0.2,0.1-0.5,0.2-0.8,0.2l-1.1-0.1c0,0,0,0,0,0.1l1.1,0.1c0.2,0,0.6,0.1,0.7,0.2c0,0.1-0.1,0.3-0.2,0.5
		L40,9.2l0,0l0,0l0.7-0.7c0.1-0.1,0.3-0.2,0.5-0.2c0.1,0.2,0.2,0.5,0.2,0.8l-0.1,1.2c0,0,0,0,0.1,0l0,0l0.1-1.2
		c0-0.3,0.1-0.6,0.3-0.8c0.1,0,0.2,0.1,0.3,0.2l0.6,0.6l0,0l-0.6-0.6c0-0.1-0.1-0.2-0.1-0.3C42.2,7.9,42.6,7.8,42.9,7.8l1,0.1
		c0,0,0,0,0-0.1H42.9z"/>
	<radialGradient id="SVGID_27_" cx="-209.8557" cy="923.6223" r="5.3795" gradientTransform="matrix(0.9647 -0.2633 0.2633 0.9647 -33.4564 -923.1791)" gradientUnits="userSpaceOnUse">
		<stop  offset="9.895546e-02" style="stop-color:#FCFCFC"/>
		<stop  offset="1" style="stop-color:#FFFFFF;stop-opacity:0"/>
	</radialGradient>
	<path class="st28" d="M10.2,22.5c-0.7,0.2-1.4,0.1-1.9-0.2c0-0.3,0.1-0.6,0.2-0.8l1.1-2l0,0H9.5l-1.1,2c-0.1,0.2-0.3,0.5-0.6,0.7
		c-0.5-0.3-0.8-0.9-1-1.5L6,17.8l0,0H5.9l0.8,2.8c0.2,0.7,0.1,1.2-0.1,1.8c-0.3,0-0.7-0.1-1-0.2l-1.7-1c0,0,0,0.1-0.1,0.1l1.7,1
		c0.3,0.2,0.6,0.5,0.8,0.8c-0.3,0.5-0.8,0.8-1.4,0.9l-2.4,0.7v0.1l2.4-0.7C5.4,24,6,24,6.6,24.3c0,0.3-0.1,0.8-0.2,1.1l-1.2,1.7
		c0,0,0.1,0,0.1,0.1l0,0l1-1.8C6.4,25,6.7,24.8,7,24.6c0.5,0.3,0.9,0.9,1,1.5l0.7,2.6h0.1l0,0L8.3,26c-0.1-0.6-0.1-1.2,0.1-1.7
		c0.3,0,0.6,0.1,0.9,0.2l1.5,0.9c0,0,0-0.1,0.1-0.1l-1.6-0.9c-0.3-0.1-0.6-0.3-0.7-0.7c0.3-0.6,0.9-1,1.6-1.1l2.1-0.6v-0.1L10.2,22.5
		z"/>
</svg>
