
<svg xmlns="http://www.w3.org/2000/svg" viewBox="0 0 55 55">
<style type="text/css">
	.st0{fill:url(#SVGID_1_);}
	.st1{fill:url(#SVGID_2_);}
	.st2{fill:#E4A479;}
	.st3{fill:url(#p2_1_);}
	.st4{fill:url(#p1_1_);}
	.st5{fill:url(#p3_1_);}
	.st6{fill:url(#p4_1_);}
	.st7{fill:url(#p5_1_);}
	.st8{fill:url(#p6_1_);}
	.st9{opacity:0.52;fill:url(#SVGID_3_);enable-background:new    ;}
	.st10{opacity:0.59;fill:url(#SVGID_4_);enable-background:new    ;}
	.st11{opacity:0.5;fill:url(#SVGID_5_);enable-background:new    ;}
	.st12{opacity:0.44;fill:#75025B;enable-background:new    ;}
	.st13{opacity:0.43;fill:#700157;enable-background:new    ;}
	.st14{opacity:0.46;fill:#710159;enable-background:new    ;}
	.st15{fill:#F6DCEF;}
	.st16{fill:#FF9EE9;}
	.st17{fill:none;stroke:#003155;stroke-width:0.25;stroke-miterlimit:10;}
	.st18{fill:url(#SVGID_6_);}
	.st19{fill:url(#SVGID_7_);}
	.st20{fill:url(#SVGID_8_);}
	.st21{fill:url(#SVGID_9_);}
	.st22{fill:url(#SVGID_10_);}
	.st23{fill:url(#SVGID_11_);}
	.st24{fill:#0524C5;}
	.st25{fill:#0A25A6;}
	.st26{fill:#0A26AA;}
	.st27{fill:#DAEFEE;}
	.st28{fill:none;stroke:#2008A0;stroke-width:0.25;stroke-miterlimit:10;}
	.st29{fill:#7DDCFF;}
	.st30{fill:url(#SVGID_12_);}
	.st31{fill:#FF2222;}
	.st32{fill:url(#SVGID_13_);}
	.st33{fill:url(#SVGID_14_);}
	.st34{fill:url(#SVGID_15_);}
	.st35{fill:url(#SVGID_16_);}
	.st36{fill:#711401;}
	.st37{fill:#6C1301;}
	.st38{fill:#6F1301;}
	.st39{fill:#F6E1DD;}
	.st40{fill:#FFAD9C;}
	.st41{fill:none;stroke:#4A0F02;stroke-width:0.25;stroke-miterlimit:10;}
</style>
<linearGradient id="SVGID_1_" gradientUnits="userSpaceOnUse" x1="27.5" y1="53.02" x2="27.5" y2="1.98">
	<stop  offset="0" style="stop-color:#000C3F"/>
	<stop  offset="1" style="stop-color:#00235F"/>
</linearGradient>
<path class="st0" d="M49.3,53H5.7C3.7,53,2,51.3,2,49.3V5.7C2,3.7,3.7,2,5.7,2h43.5C51.3,2,53,3.7,53,5.7v43.5
	C53,51.3,51.3,53,49.3,53z"/>
<g>
	
		<linearGradient id="SVGID_2_" gradientUnits="userSpaceOnUse" x1="27.5" y1="3187.3081" x2="27.5" y2="3202.1995" gradientTransform="matrix(1 0 0 1 0 -3152)">
		<stop  offset="0" style="stop-color:#F08B41"/>
		<stop  offset="1" style="stop-color:#B24F20"/>
	</linearGradient>
	<path class="st1" d="M5.7,35.3h43.5c0.5,0,0.9,0.4,0.9,0.9v13.2c0,0.5-0.4,0.9-0.9,0.9H5.7c-0.5,0-0.9-0.4-0.9-0.9V36.2
		C4.9,35.7,5.3,35.3,5.7,35.3z"/>
	<polygon class="st2" points="5.7,35.3 7.8,38.2 47.4,38.2 48.9,35.3 	"/>
	
		<linearGradient id="p2_1_" gradientUnits="userSpaceOnUse" x1="-21.0957" y1="-1076.2231" x2="-6.022" y2="-1076.2231" gradientTransform="matrix(1.2821 0 0 -1.2821 56.0373 -1337.141)">
		<stop  offset="0" style="stop-color:#FFFFFF;stop-opacity:0"/>
		<stop  offset="1" style="stop-color:#0000FF;stop-opacity:0.7"/>
	</linearGradient>
	<path id="p2" class="st3" d="M48.9,48.3V37.2c-0.5,0-0.9-0.4-0.9-0.9c0,0,0-0.1,0-0.1H7c0,0.1,0,0.1,0,0.2c0,0.5-0.4,0.9-0.9,0.9
		c0,0-0.1,0-0.1,0v11.1c0,0,0.1,0,0.1,0c0.5,0,0.9,0.4,0.9,0.9h41C48,48.7,48.4,48.3,48.9,48.3z"/>
	
		<linearGradient id="p1_1_" gradientUnits="userSpaceOnUse" x1="-22.5575" y1="-1076.4067" x2="-13.0665" y2="-1070.9746" gradientTransform="matrix(1.2821 0 0 -1.2821 56.0373 -1337.141)">
		<stop  offset="0" style="stop-color:#FFFFFF;stop-opacity:0"/>
		<stop  offset="1" style="stop-color:#FF0000;stop-opacity:0.7"/>
	</linearGradient>
	<path id="p1" class="st4" d="M48.9,48.3V37.2c-0.5,0-0.9-0.4-0.9-0.9c0,0,0-0.1,0-0.1H7c0,0.1,0,0.1,0,0.2c0,0.5-0.4,0.9-0.9,0.9
		c0,0-0.1,0-0.1,0v11.1c0,0,0.1,0,0.1,0c0.5,0,0.9,0.4,0.9,0.9h41C48,48.7,48.4,48.3,48.9,48.3z"/>
	
		<linearGradient id="p3_1_" gradientUnits="userSpaceOnUse" x1="-26.5628" y1="-1068.2528" x2="-22.5262" y2="-1075.7863" gradientTransform="matrix(1.2821 0 0 -1.2821 56.0373 -1337.141)">
		<stop  offset="0" style="stop-color:#FFFFFF;stop-opacity:0"/>
		<stop  offset="1" style="stop-color:#00AEEF;stop-opacity:0.7"/>
	</linearGradient>
	<path id="p3" class="st5" d="M48.9,48.3V37.2c-0.5,0-0.9-0.4-0.9-0.9c0,0,0-0.1,0-0.1H7c0,0.1,0,0.1,0,0.2c0,0.5-0.4,0.9-0.9,0.9
		c0,0-0.1,0-0.1,0v11.1c0,0,0.1,0,0.1,0c0.5,0,0.9,0.4,0.9,0.9h41C48,48.7,48.4,48.3,48.9,48.3z"/>
	
		<linearGradient id="p4_1_" gradientUnits="userSpaceOnUse" x1="-19.8158" y1="-1072.3999" x2="-24.4387" y2="-1079.7465" gradientTransform="matrix(1.2821 0 0 -1.2821 56.0373 -1337.141)">
		<stop  offset="0" style="stop-color:#FFFFFF;stop-opacity:0"/>
		<stop  offset="1" style="stop-color:#00FF00;stop-opacity:0.7"/>
	</linearGradient>
	<path id="p4" class="st6" d="M48.9,48.3V37.2c-0.5,0-0.9-0.4-0.9-0.9c0,0,0-0.1,0-0.1H7c0,0.1,0,0.1,0,0.2c0,0.5-0.4,0.9-0.9,0.9
		c0,0-0.1,0-0.1,0v11.1c0,0,0.1,0,0.1,0c0.5,0,0.9,0.4,0.9,0.9h41C48,48.7,48.4,48.3,48.9,48.3z"/>
	
		<linearGradient id="p5_1_" gradientUnits="userSpaceOnUse" x1="-16.3259" y1="-1076.2231" x2="-30.3088" y2="-1076.2231" gradientTransform="matrix(1.2821 0 0 -1.2821 56.0373 -1337.141)">
		<stop  offset="0" style="stop-color:#FFFFFF;stop-opacity:0"/>
		<stop  offset="1" style="stop-color:#FFFF00;stop-opacity:0.7"/>
	</linearGradient>
	<path id="p5" class="st7" d="M48.9,48.3V37.2c-0.5,0-0.9-0.4-0.9-0.9c0,0,0-0.1,0-0.1H7c0,0.1,0,0.1,0,0.2c0,0.5-0.4,0.9-0.9,0.9
		c0,0-0.1,0-0.1,0v11.1c0,0,0.1,0,0.1,0c0.5,0,0.9,0.4,0.9,0.9h41C48,48.7,48.4,48.3,48.9,48.3z"/>
	
		<linearGradient id="p6_1_" gradientUnits="userSpaceOnUse" x1="-21.2042" y1="-1078.1104" x2="-26.8273" y2="-1068.3707" gradientTransform="matrix(1.2821 0 0 -1.2821 56.0373 -1337.141)">
		<stop  offset="0" style="stop-color:#FFFFFF;stop-opacity:0"/>
		<stop  offset="1" style="stop-color:#FF0A49;stop-opacity:0.7"/>
	</linearGradient>
	<path id="p6" class="st8" d="M48.9,48.3V37.2c-0.5,0-0.9-0.4-0.9-0.9c0,0,0-0.1,0-0.1H7c0,0.1,0,0.1,0,0.2c0,0.5-0.4,0.9-0.9,0.9
		c0,0-0.1,0-0.1,0v11.1c0,0,0.1,0,0.1,0c0.5,0,0.9,0.4,0.9,0.9h41C48,48.7,48.4,48.3,48.9,48.3z"/>
	
		<linearGradient id="SVGID_3_" gradientUnits="userSpaceOnUse" x1="7.0382" y1="3188.7913" x2="48.0446" y2="3188.7913" gradientTransform="matrix(1 0 0 1 0 -3152)">
		<stop  offset="0" style="stop-color:#FF25CE"/>
		<stop  offset="0.3739" style="stop-color:#FF46D6"/>
		<stop  offset="0.6707" style="stop-color:#FF28D0"/>
		<stop  offset="0.9361" style="stop-color:#FE1BCC"/>
		<stop  offset="0.9999" style="stop-color:#FF22CE"/>
	</linearGradient>
	<path class="st9" d="M7,36.2c0,0,39.5,0,41,0c-0.6,1.2-2.4,1.2-4.7,1.2c-1.2,0-30.2,0-31.9,0C9.2,37.4,8.7,37.7,7,36.2z"/>
	
		<linearGradient id="SVGID_4_" gradientUnits="userSpaceOnUse" x1="48.17" y1="3189.1558" x2="48.17" y2="3200.2966" gradientTransform="matrix(1 0 0 1 0 -3152)">
		<stop  offset="0" style="stop-color:#FC15C9"/>
		<stop  offset="0.5491" style="stop-color:#C7029B"/>
		<stop  offset="1" style="stop-color:#8C016D"/>
	</linearGradient>
	<path class="st10" d="M48.9,48.3c0,0,0-8.9,0-11.1c-1.2,1.1-1.3,1.7-1.4,2.7c-0.1,1-0.1,6.9,0.2,7.6C48.2,47.9,48.9,48.3,48.9,48.3
		z"/>
	
		<linearGradient id="SVGID_5_" gradientUnits="userSpaceOnUse" x1="6.9236" y1="3189.2661" x2="6.9236" y2="3200.3242" gradientTransform="matrix(1 0 0 1 0 -3152)">
		<stop  offset="0" style="stop-color:#F815C7"/>
		<stop  offset="0.5491" style="stop-color:#CB009F"/>
		<stop  offset="0.9976" style="stop-color:#8D006E"/>
	</linearGradient>
	<path class="st11" d="M6.1,37.3c0,0,0,10.3,0,11.1c0.6-0.6,0.9-0.9,1.1-1c0.6-2.3,0.8-6.4,0-8.6C6.8,37.9,6.1,37.3,6.1,37.3z"/>
	<path class="st12" d="M7,49.2c0,0,39.9,0,41,0c-0.6-0.7-1.2-1.2-1.2-1.2H8.2L7,49.2z"/>
	<path class="st13" d="M6.1,48.3c0.3-0.3,0.9-0.8,1.1-1c0.6,0,0.9,0.3,1,0.7C7.6,48.6,7.3,49,7,49.2C7,48.6,6.5,48.3,6.1,48.3z"/>
	<path class="st14" d="M48,49.2c0-0.6,0.5-0.9,0.9-0.9c-0.7-0.5-1-0.7-1.2-0.9c-0.2-0.2-0.9,0.2-0.9,0.6
		C47.1,48.3,47.9,48.9,48,49.2z"/>
	<path class="st15" d="M6.1,37.3C6.5,37.8,7,38,7.2,38.7s0.4,1.7,0.5,2.5c-0.2-1.9-0.1-2.2-0.1-2.4c0.3-0.4,0.6-0.9,0.8-1.1
		c0.4-0.1,1.7-0.2,2.5-0.2c-2.3,0-2.5,0-3.9-1.2C7,36.9,6.6,37.3,6.1,37.3z"/>
	<path class="st16" d="M48.9,37.2c-0.3,0.2-1.5,1.2-1.5,3.6c0-1.6,0-2.1,0-2.1s-0.7-1-0.8-1.2c-0.6-0.1-1.6-0.2-2.7-0.2
		c3-0.1,3.6-0.4,4-1.2C48,37,48.4,37.3,48.9,37.2z"/>
	<path class="st17" d="M48.9,48.3V37.2c-0.5,0-0.9-0.4-0.9-0.9c0,0,0-0.1,0-0.1H7c0,0.1,0,0.1,0,0.2c0,0.5-0.4,0.9-0.9,0.9
		c0,0-0.1,0-0.1,0v11.1c0,0,0.1,0,0.1,0c0.5,0,0.9,0.4,0.9,0.9h41C48,48.7,48.4,48.3,48.9,48.3z"/>
</g>
<g>
	
		<linearGradient id="SVGID_6_" gradientUnits="userSpaceOnUse" x1="19.895" y1="-751.5721" x2="19.895" y2="-766.4422" gradientTransform="matrix(1 0 0 -1 0 -732.1102)">
		<stop  offset="0" style="stop-color:#F08B41"/>
		<stop  offset="1" style="stop-color:#B24F20"/>
	</linearGradient>
	<path class="st18" d="M5.8,19.5H34c0.5,0,0.9,0.4,0.9,0.9v13.1c0,0.5-0.4,0.9-0.9,0.9H5.8c-0.5,0-0.9-0.4-0.9-0.9V20.3
		C4.9,19.9,5.3,19.5,5.8,19.5z"/>
	<polygon class="st2" points="5.8,19.5 7.8,22.4 32.2,22.4 33.7,19.5 	"/>
	
		<linearGradient id="SVGID_7_" gradientUnits="userSpaceOnUse" x1="6.8699" y1="-758.897" x2="32.8926" y2="-758.897" gradientTransform="matrix(1 0 0 -1 0 -732.1102)">
		<stop  offset="0" style="stop-color:#00A5FB"/>
		<stop  offset="0.5491" style="stop-color:#0094FA"/>
		<stop  offset="0.8782" style="stop-color:#01A4FA"/>
		<stop  offset="1" style="stop-color:#02C7FC"/>
	</linearGradient>
	<rect x="6.9" y="21.1" class="st19" width="26" height="11.3"/>
	
		<linearGradient id="SVGID_8_" gradientUnits="userSpaceOnUse" x1="6.8699" y1="-756.6115" x2="32.6723" y2="-756.6115" gradientTransform="matrix(1 0 0 -1 0 -732.1102)">
		<stop  offset="0" style="stop-color:#00A5FB;stop-opacity:0.1"/>
		<stop  offset="0.5491" style="stop-color:#03CBFC;stop-opacity:0.8"/>
		<stop  offset="1" style="stop-color:#01A4FA;stop-opacity:0.4"/>
	</linearGradient>
	<polygon class="st20" points="6.9,22.7 20.4,27.9 32.2,22.3 32.7,21.1 7.4,21.1 	"/>
	
		<linearGradient id="SVGID_9_" gradientUnits="userSpaceOnUse" x1="7.0351" y1="-753.0531" x2="32.8375" y2="-753.0531" gradientTransform="matrix(1 0 0 -1 0 -732.1102)">
		<stop  offset="0" style="stop-color:#079FF3"/>
		<stop  offset="0.3739" style="stop-color:#04C0F5"/>
		<stop  offset="0.6707" style="stop-color:#059CEB"/>
		<stop  offset="0.9361" style="stop-color:#0497EE"/>
		<stop  offset="1" style="stop-color:#0990EC"/>
	</linearGradient>
	<path class="st21" d="M7,20.3c0,0,24.3,0,25.8,0c-0.6,1.2-2.4,1.2-4.7,1.2c-1.2,0-15,0-16.7,0C9.2,21.6,8.7,21.8,7,20.3z"/>
	
		<linearGradient id="SVGID_10_" gradientUnits="userSpaceOnUse" x1="32.9627" y1="-753.4171" x2="32.9627" y2="-764.5422" gradientTransform="matrix(1 0 0 -1 0 -732.1102)">
		<stop  offset="0" style="stop-color:#0693F1"/>
		<stop  offset="0.5491" style="stop-color:#0659D6"/>
		<stop  offset="1" style="stop-color:#0631D4"/>
	</linearGradient>
	<path class="st22" d="M33.7,32.4c0,0,0-8.9,0-11.1c-1.2,1.1-1.3,1.7-1.4,2.7c-0.1,1-0.1,6.9,0.2,7.6C33,32,33.7,32.4,33.7,32.4z"/>
	
		<linearGradient id="SVGID_11_" gradientUnits="userSpaceOnUse" x1="6.9207" y1="-753.5273" x2="6.9207" y2="-764.5697" gradientTransform="matrix(1 0 0 -1 0 -732.1102)">
		<stop  offset="0" style="stop-color:#049CF6"/>
		<stop  offset="0.5491" style="stop-color:#055CD6"/>
		<stop  offset="1" style="stop-color:#0632D2"/>
	</linearGradient>
	<path class="st23" d="M6.1,21.4c0,0,0,10.3,0,11c0.6-0.6,0.9-0.9,1.1-1c0.6-2.3,0.8-6.4,0-8.6C6.8,22,6.1,21.4,6.1,21.4z"/>
	<path class="st24" d="M7,33.3c0,0,24.7,0,25.8,0c-0.6-0.7-1.2-1.2-1.2-1.2H8.2L7,33.3z"/>
	<path class="st25" d="M6.1,32.4c0.3-0.3,0.9-0.8,1.1-1c0.6,0,0.9,0.3,1,0.7c-0.6,0.6-0.9,0.9-1.2,1.2C7,32.7,6.5,32.4,6.1,32.4z"/>
	<path class="st26" d="M32.8,33.3c0-0.6,0.5-0.9,0.9-0.9c-0.7-0.5-1-0.7-1.2-0.9c-0.2-0.2-0.9,0.2-0.9,0.6
		C31.9,32.4,32.6,33.1,32.8,33.3z"/>
	<path class="st27" d="M6.1,21.4c0.4,0.5,0.9,0.8,1.1,1.4c0.3,0.7,0.4,1.7,0.5,2.5c-0.2-1.9-0.1-2.2-0.1-2.4
		c0.3-0.4,0.6-0.9,0.8-1.1c0.4-0.1,1.7-0.2,2.5-0.2c-2.3,0-2.5,0-3.9-1.2C7,21,6.6,21.4,6.1,21.4z"/>
	<path class="st28" d="M33.7,32.4V21.3c-0.5,0-0.9-0.4-0.9-0.9c0,0,0-0.1,0-0.1H7c0,0.1,0,0.1,0,0.2c0,0.5-0.4,0.9-0.9,0.9
		c0,0-0.1,0-0.1,0v11c0,0,0.1,0,0.1,0c0.5,0,0.9,0.4,0.9,0.9h25.8C32.8,32.8,33.2,32.4,33.7,32.4z"/>
	<path class="st29" d="M33.7,21.4c-0.3,0.2-1.5,1.2-1.5,3.6c0-1.6,0-2.1,0-2.1s-0.7-1-0.8-1.2c-0.6-0.1-1.6-0.2-2.7-0.2
		c3-0.1,3.6-0.4,4-1.2C32.8,21.1,33.2,21.4,33.7,21.4z"/>
</g>
<g>
	
		<linearGradient id="SVGID_12_" gradientUnits="userSpaceOnUse" x1="43.0367" y1="-1525.1587" x2="43.0367" y2="-1540.0288" gradientTransform="matrix(1 0 0 -1 0 -1520.1102)">
		<stop  offset="0" style="stop-color:#F08B41"/>
		<stop  offset="1" style="stop-color:#B24F20"/>
	</linearGradient>
	<path class="st30" d="M36.7,5h12.7c0.6,0,1.1,0.5,1.1,1.1v12.7c0,0.6-0.5,1.1-1.1,1.1H36.7c-0.6,0-1.1-0.5-1.1-1.1V6.2
		C35.6,5.5,36.1,5,36.7,5z"/>
	<polygon class="st2" points="36.7,5 38.5,8 47.7,8 49.4,5 	"/>
	<rect x="37.6" y="6.7" class="st31" width="10.9" height="11.3"/>
	
		<linearGradient id="SVGID_13_" gradientUnits="userSpaceOnUse" x1="37.5843" y1="-1530.198" x2="48.2412" y2="-1530.198" gradientTransform="matrix(1 0 0 -1 0 -1520.1102)">
		<stop  offset="1.430758e-03" style="stop-color:#FF6B4D;stop-opacity:0.1"/>
		<stop  offset="0.5487" style="stop-color:#FF6C4E"/>
		<stop  offset="1" style="stop-color:#FF6848;stop-opacity:0.1"/>
	</linearGradient>
	<polygon class="st32" points="37.6,8.3 42.9,13.5 47.8,7.9 48.2,6.7 38.1,6.7 	"/>
	
		<linearGradient id="SVGID_14_" gradientUnits="userSpaceOnUse" x1="37.7495" y1="-1526.6396" x2="48.4064" y2="-1526.6396" gradientTransform="matrix(1 0 0 -1 0 -1520.1102)">
		<stop  offset="0" style="stop-color:#FF451F"/>
		<stop  offset="0.3739" style="stop-color:#FF6343"/>
		<stop  offset="0.6707" style="stop-color:#FF5633"/>
		<stop  offset="0.9361" style="stop-color:#F63B15"/>
		<stop  offset="0.9995" style="stop-color:#FF441E"/>
	</linearGradient>
	<path class="st33" d="M37.7,5.9c0,0,9.2,0,10.7,0c-0.6,1.2-2.4,1.2-4.7,1.2c-1.2,0,0.2,0-1.6,0C39.9,7.1,39.4,7.4,37.7,5.9z"/>
	
		<linearGradient id="SVGID_15_" gradientUnits="userSpaceOnUse" x1="48.5317" y1="-1527.0037" x2="48.5317" y2="-1538.1287" gradientTransform="matrix(1 0 0 -1 0 -1520.1102)">
		<stop  offset="0" style="stop-color:#F73811"/>
		<stop  offset="0.5491" style="stop-color:#C62201"/>
		<stop  offset="1" style="stop-color:#8C1701"/>
	</linearGradient>
	<path class="st34" d="M49.3,18c0,0,0-8.9,0-11.1c-1.2,1.1-1.3,1.7-1.4,2.7c-0.1,1-0.1,6.9,0.2,7.6C48.5,17.6,49.3,18,49.3,18z"/>
	
		<linearGradient id="SVGID_16_" gradientUnits="userSpaceOnUse" x1="37.6351" y1="-1527.1138" x2="37.6351" y2="-1538.1562" gradientTransform="matrix(1 0 0 -1 0 -1520.1102)">
		<stop  offset="0" style="stop-color:#FA3912"/>
		<stop  offset="0.5491" style="stop-color:#C52202"/>
		<stop  offset="0.9976" style="stop-color:#8C1701"/>
	</linearGradient>
	<path class="st35" d="M36.8,7c0,0,0,10.3,0,11c0.6-0.6,0.9-0.9,1.1-1c0.6-2.3,0.8-6.4,0-8.6C37.5,7.6,36.8,7,36.8,7z"/>
	<path class="st36" d="M37.7,18.9c0,0,9.6,0,10.7,0c-0.6-0.7-1.2-1.2-1.2-1.2h-8.3L37.7,18.9z"/>
	<path class="st37" d="M36.8,18c0.3-0.3,0.9-0.8,1.1-1c0.6,0,0.9,0.3,1,0.7c-0.6,0.6-0.9,0.9-1.2,1.2C37.7,18.3,37.2,18,36.8,18z"/>
	<path class="st38" d="M48.4,18.9c0-0.6,0.5-0.9,0.9-0.9c-0.7-0.5-1-0.7-1.2-0.9c-0.2-0.2-0.9,0.2-0.9,0.6
		C47.5,18,48.2,18.7,48.4,18.9z"/>
	<path class="st39" d="M36.8,7c0.4,0.5,0.9,0.8,1.1,1.4s0.4,1.7,0.5,2.5c-0.2-1.9-0.1-2.2-0.1-2.4c0.3-0.4,0.6-0.9,0.8-1.1
		c0.4-0.1,1.7-0.2,2.5-0.2c-2.3,0-2.5,0-3.9-1.2C37.7,6.6,37.3,7,36.8,7z"/>
	<path class="st40" d="M49.3,7c-0.3,0.2-1.5,1.2-1.5,3.6c0-1.6,0-2.1,0-2.1s-0.7-1-0.8-1.2c-0.6-0.1-1.6-0.2-2.7-0.2
		c3-0.1,3.6-0.4,4-1.2C48.3,6.7,48.8,7,49.3,7z"/>
	<path class="st41" d="M49.3,18V6.9c-0.5,0-0.9-0.4-0.9-0.9c0,0,0-0.1,0-0.1H37.7c0,0.1,0,0.1,0,0.2c0,0.5-0.4,0.9-0.9,0.9
		c0,0-0.1,0-0.1,0v11c0,0,0.1,0,0.1,0c0.5,0,0.9,0.4,0.9,0.9h10.7C48.4,18.4,48.8,18,49.3,18z"/>
</g>
</svg>
