
<svg xmlns="http://www.w3.org/2000/svg" viewBox="0 0 55 55">
<style type="text/css">
	.st0{fill:#250074;filter:url(#defapp-filter-1);}
	.st1{fill:url(#SVGID_1_);}
	.st2{fill:url(#SVGID_2_);}
	.st3{fill:url(#SVGID_3_);}
	.st4{fill:url(#SVGID_4_);}
	.st5{fill:url(#SVGID_5_);}
	.st6{fill:url(#SVGID_6_);}
	.st7{fill:url(#SVGID_7_);}
	.st8{fill:url(#SVGID_8_);}
	.st9{fill:url(#SVGID_9_);}
	.st10{fill:url(#SVGID_10_);}
	.st11{fill:url(#SVGID_11_);}
	.st12{fill:url(#SVGID_12_);}
	.st13{fill:url(#SVGID_13_);}
	.st14{fill:url(#SVGID_14_);}
	.st15{fill:url(#SVGID_15_);}
	.st16{fill:url(#SVGID_16_);}
	.st17{fill:url(#SVGID_17_);}
	.st18{fill:url(#SVGID_18_);}
	.st19{fill:url(#SVGID_19_);}
	.st20{opacity:0.74;fill:url(#SVGID_20_);}
	.st21{opacity:0.74;fill:url(#SVGID_21_);}
	.st22{opacity:0.74;fill:url(#SVGID_22_);}
	.st23{opacity:0.74;fill:url(#SVGID_23_);}
	.st24{fill:none;stroke:#250074;stroke-width:0.5;stroke-miterlimit:10;}
	.st25{fill:url(#SVGID_24_);}
	.st26{fill:url(#SVGID_25_);}
	.st27{fill:url(#SVGID_26_);}
	.st28{fill:url(#SVGID_27_);}
</style>
	<filter filterUnits="objectBoundingBox" id="defapp-filter-1">
		<feOffset dx="0" dy="1.5" in="SourceAlpha" result="defappShadowOffsetOuter1"></feOffset>
		<feGaussianBlur stdDeviation="1.5" in="defappShadowOffsetOuter1" result="defappShadowBlurOuter1"></feGaussianBlur>
		<feColorMatrix values="0 0 0 0 0   0 0 0 0 0   0 0 0 0 0  0 0 0 0.75 0" type="matrix" in="defappShadowBlurOuter1" result="defappShadowMatrixOuter1"></feColorMatrix>
		<feMerge>
			<feMergeNode in="defappShadowMatrixOuter1"/>
			<feMergeNode in="SourceGraphic"/>
		</feMerge>
	</filter>
<polygon id="bg" class="st0" points="5.7,21 14,9.5 16.6,7.7 27.3,5 38.3,7.6 41.6,9.5 49.5,20.4 49,33.9 47.5,37.8 39,47.5 
	32.9,49.6 24.2,50 17.1,47.9 6.2,34.7 "/>
<linearGradient id="SVGID_1_" gradientUnits="userSpaceOnUse" x1="13.7108" y1="7.4202" x2="27.6179" y2="7.4202">
	<stop  offset="0" style="stop-color:#5C08D8"/>
	<stop  offset="1" style="stop-color:#4B0FBD"/>
</linearGradient>
<polygon class="st1" points="27.6,5.1 16.5,7.7 13.7,9.8 "/>
<linearGradient id="SVGID_2_" gradientUnits="userSpaceOnUse" x1="13.7108" y1="8.4514" x2="27.6179" y2="8.4514">
	<stop  offset="0" style="stop-color:#810FFA"/>
	<stop  offset="1" style="stop-color:#8D0CF2"/>
</linearGradient>
<polygon class="st2" points="16.7,11.8 13.7,9.8 27.6,5.1 "/>
<linearGradient id="SVGID_3_" gradientUnits="userSpaceOnUse" x1="16.6572" y1="9.0996" x2="27.6179" y2="9.0996">
	<stop  offset="3.245253e-03" style="stop-color:#9D15FF"/>
	<stop  offset="0.5013" style="stop-color:#BA17FE"/>
	<stop  offset="0.9994" style="stop-color:#B412F9"/>
</linearGradient>
<polygon class="st3" points="24,13.1 16.7,11.8 27.6,5.1 "/>
<linearGradient id="SVGID_4_" gradientUnits="userSpaceOnUse" x1="26.7972" y1="9.5895" x2="31.2098" y2="11.7381">
	<stop  offset="3.245253e-03" style="stop-color:#F359F7"/>
	<stop  offset="0.3315" style="stop-color:#F457FE"/>
	<stop  offset="0.4805" style="stop-color:#ED4FFE"/>
	<stop  offset="0.7117" style="stop-color:#D839FD"/>
	<stop  offset="0.9948" style="stop-color:#B816FC"/>
	<stop  offset="0.9994" style="stop-color:#B715FC"/>
</linearGradient>
<polygon class="st4" points="32.3,12.8 24,13.1 27.6,5.1 "/>
<linearGradient id="SVGID_5_" gradientUnits="userSpaceOnUse" x1="27.6179" y1="8.9228" x2="39.6392" y2="8.9228">
	<stop  offset="0" style="stop-color:#D020FC"/>
	<stop  offset="0.5013" style="stop-color:#F83FFF"/>
	<stop  offset="0.9978" style="stop-color:#EF20FF"/>
</linearGradient>
<polygon class="st5" points="39.6,11.4 27.6,5.1 32.3,12.8 "/>
<linearGradient id="SVGID_6_" gradientUnits="userSpaceOnUse" x1="27.6179" y1="8.2157" x2="41.466" y2="8.2157">
	<stop  offset="2.331206e-03" style="stop-color:#C517FF"/>
	<stop  offset="0.5013" style="stop-color:#DE16FD"/>
	<stop  offset="0.9994" style="stop-color:#BD0CF2"/>
</linearGradient>
<polygon class="st6" points="41.5,9.1 39.6,11.4 27.6,5.1 38.4,7.4 "/>
<linearGradient id="SVGID_7_" gradientUnits="userSpaceOnUse" x1="13.3368" y1="11.744" x2="6.6893" y2="24.9233">
	<stop  offset="0" style="stop-color:#6A07DE"/>
	<stop  offset="0.5013" style="stop-color:#7008E1"/>
	<stop  offset="0.9978" style="stop-color:#5C04D5"/>
</linearGradient>
<polygon class="st7" points="16.7,11.8 9.6,25.2 5.4,20.8 13.7,9.8 "/>
<linearGradient id="SVGID_8_" gradientUnits="userSpaceOnUse" x1="16.4257" y1="12.3891" x2="17.2101" y2="27.5643">
	<stop  offset="0" style="stop-color:#7D0DEB"/>
	<stop  offset="0.5013" style="stop-color:#930EF5"/>
	<stop  offset="1" style="stop-color:#AB10FF"/>
</linearGradient>
<polygon class="st8" points="9.6,25.2 21.3,27.8 24,13.1 16.7,11.8 "/>
<linearGradient id="SVGID_9_" gradientUnits="userSpaceOnUse" x1="23.8156" y1="16.7595" x2="32.8824" y2="27.335">
	<stop  offset="3.245253e-03" style="stop-color:#FFC3FF"/>
	<stop  offset="0.493" style="stop-color:#F2DAF2"/>
	<stop  offset="0.9994" style="stop-color:#F7D4F5"/>
</linearGradient>
<polygon class="st9" points="21.3,27.8 36.4,27.4 32.3,12.8 24,13.1 "/>
<linearGradient id="SVGID_10_" gradientUnits="userSpaceOnUse" x1="33.558" y1="12.0381" x2="42.6889" y2="27.072">
	<stop  offset="0" style="stop-color:#F55EF9"/>
	<stop  offset="0.5013" style="stop-color:#E84BFA"/>
	<stop  offset="1" style="stop-color:#DA2EF2"/>
</linearGradient>
<polygon class="st10" points="36.4,27.4 47,24.5 39.6,11.4 32.3,12.8 "/>
<linearGradient id="SVGID_11_" gradientUnits="userSpaceOnUse" x1="41.2667" y1="10.7754" x2="48.36" y2="22.4545">
	<stop  offset="0" style="stop-color:#C312FE"/>
	<stop  offset="0.5013" style="stop-color:#B70EFF"/>
	<stop  offset="1" style="stop-color:#A40CFD"/>
</linearGradient>
<polygon class="st11" points="47,24.5 49.6,20.3 41.5,9.1 39.6,11.4 "/>
<linearGradient id="SVGID_12_" gradientUnits="userSpaceOnUse" x1="48.0168" y1="25.1262" x2="48.428" y2="37.5496">
	<stop  offset="3.244868e-03" style="stop-color:#4A02CE"/>
	<stop  offset="0.493" style="stop-color:#6D03D9"/>
	<stop  offset="0.8149" style="stop-color:#7507D6"/>
	<stop  offset="0.9978" style="stop-color:#7C0AD4"/>
</linearGradient>
<polygon class="st12" points="49.1,33.7 49.6,20.3 47,24.5 46.7,38.3 47.5,37.8 "/>
<linearGradient id="SVGID_13_" gradientUnits="userSpaceOnUse" x1="36.327" y1="27.4642" x2="46.643" y2="38.3626">
	<stop  offset="3.245058e-03" style="stop-color:#D520FB"/>
	<stop  offset="0.493" style="stop-color:#9B10FF"/>
	<stop  offset="0.831" style="stop-color:#9E18FD"/>
	<stop  offset="0.9978" style="stop-color:#A01EFC"/>
</linearGradient>
<polygon class="st13" points="36.4,27.4 36.4,41.8 46.7,38.3 47,24.5 "/>
<linearGradient id="SVGID_14_" gradientUnits="userSpaceOnUse" x1="37.1004" y1="40.3467" x2="40.8813" y2="45.2364">
	<stop  offset="3.245253e-03" style="stop-color:#3E00B0"/>
	<stop  offset="0.493" style="stop-color:#7003DB"/>
	<stop  offset="0.593" style="stop-color:#7805DE"/>
	<stop  offset="0.7483" style="stop-color:#8E09E5"/>
	<stop  offset="0.9383" style="stop-color:#B110F0"/>
	<stop  offset="0.9978" style="stop-color:#BE12F4"/>
</linearGradient>
<polygon class="st14" points="39.2,47.3 46.7,38.3 36.4,41.8 33,49.5 "/>
<linearGradient id="SVGID_15_" gradientUnits="userSpaceOnUse" x1="28.9491" y1="43.5311" x2="28.7361" y2="49.6888">
	<stop  offset="3.245253e-03" style="stop-color:#3E00B0"/>
	<stop  offset="0.493" style="stop-color:#7003DB"/>
	<stop  offset="0.593" style="stop-color:#7805DE"/>
	<stop  offset="0.7483" style="stop-color:#8E09E5"/>
	<stop  offset="0.9383" style="stop-color:#B110F0"/>
	<stop  offset="0.9978" style="stop-color:#BE12F4"/>
</linearGradient>
<polygon class="st15" points="33,49.5 24,49.8 21.6,42.1 36.4,41.8 "/>
<linearGradient id="SVGID_16_" gradientUnits="userSpaceOnUse" x1="9.8506" y1="38.7248" x2="25.5702" y2="49.3468">
	<stop  offset="3.245253e-03" style="stop-color:#2601A7"/>
	<stop  offset="0.493" style="stop-color:#C004FF"/>
	<stop  offset="0.5571" style="stop-color:#B804FA"/>
	<stop  offset="0.6565" style="stop-color:#A204EE"/>
	<stop  offset="0.7789" style="stop-color:#7E04D9"/>
	<stop  offset="0.9181" style="stop-color:#4D04BD"/>
	<stop  offset="0.9994" style="stop-color:#2D04AA"/>
</linearGradient>
<polygon class="st16" points="16.7,47.9 24,49.9 21.6,42.1 9.6,39 "/>
<linearGradient id="SVGID_17_" gradientUnits="userSpaceOnUse" x1="7.127" y1="24.1098" x2="8.5903" y2="35.993">
	<stop  offset="0" style="stop-color:#2F1077"/>
	<stop  offset="0.5013" style="stop-color:#4201B7"/>
	<stop  offset="0.9978" style="stop-color:#3A03C1"/>
</linearGradient>
<polygon class="st17" points="6.1,34.8 9.6,39 10,39 9.6,25.2 5.4,20.8 "/>
<linearGradient id="SVGID_18_" gradientUnits="userSpaceOnUse" x1="23.0566" y1="28.4811" x2="35.2528" y2="41.3659">
	<stop  offset="3.245253e-03" style="stop-color:#970AED"/>
	<stop  offset="0.493" style="stop-color:#7A0BE3"/>
	<stop  offset="0.6696" style="stop-color:#820CE9"/>
	<stop  offset="0.9429" style="stop-color:#980EFA"/>
	<stop  offset="0.9978" style="stop-color:#9D0EFE"/>
</linearGradient>
<polygon class="st18" points="36.4,27.4 36.4,41.8 21.6,42.1 21.3,27.8 "/>
<linearGradient id="SVGID_19_" gradientUnits="userSpaceOnUse" x1="9.4118" y1="25.2922" x2="22.1227" y2="41.7303">
	<stop  offset="3.245253e-03" style="stop-color:#3E00B0"/>
	<stop  offset="0.493" style="stop-color:#7003DB"/>
	<stop  offset="0.593" style="stop-color:#7805DE"/>
	<stop  offset="0.7483" style="stop-color:#8E09E5"/>
	<stop  offset="0.9383" style="stop-color:#B110F0"/>
	<stop  offset="0.9978" style="stop-color:#BE12F4"/>
</linearGradient>
<polygon class="st19" points="21.6,42.1 21.3,27.8 9.6,25.2 10,38.9 10.2,39.3 "/>
<radialGradient id="SVGID_20_" cx="21.5412" cy="26.3067" r="5.3119" gradientUnits="userSpaceOnUse">
	<stop  offset="3.244868e-03" style="stop-color:#FFFFFF"/>
	<stop  offset="0.6238" style="stop-color:#FEF9FD;stop-opacity:0.5632"/>
	<stop  offset="0.9978" style="stop-color:#FDF3FB;stop-opacity:0.3"/>
</radialGradient>
<polygon class="st20" points="17.1,26.8 20.7,28.3 21.4,32.3 21.9,28.2 26,27.6 21.9,27.1 22.7,20.3 20.8,27.1 "/>
<radialGradient id="SVGID_21_" cx="36.9802" cy="27.7125" r="6.0745" gradientUnits="userSpaceOnUse">
	<stop  offset="3.244868e-03" style="stop-color:#FFFFFF"/>
	<stop  offset="0.6238" style="stop-color:#FEF9FD;stop-opacity:0.5632"/>
	<stop  offset="0.9978" style="stop-color:#FDF3FB;stop-opacity:0.3"/>
</radialGradient>
<polygon class="st21" points="32.7,27.5 35.9,27.8 36.3,35.2 36.9,27.7 41.3,26 36.8,26.9 34.4,20.3 35.7,27.1 "/>
<radialGradient id="SVGID_22_" cx="21.8484" cy="40.56" r="3.3876" gradientUnits="userSpaceOnUse">
	<stop  offset="3.244868e-03" style="stop-color:#FFFFFF"/>
	<stop  offset="0.6238" style="stop-color:#FEF9FD;stop-opacity:0.5632"/>
	<stop  offset="0.9978" style="stop-color:#FDF3FB;stop-opacity:0.3"/>
</radialGradient>
<polygon class="st22" points="18.4,41.4 21.3,42.4 22.1,43.9 22,42.5 25.3,42 21.8,41.7 21.3,37.3 21.2,41.5 "/>
<radialGradient id="SVGID_23_" cx="36.6328" cy="42.3259" r="3.8418" gradientUnits="userSpaceOnUse">
	<stop  offset="3.244868e-03" style="stop-color:#FFFFFF"/>
	<stop  offset="0.6238" style="stop-color:#FEF9FD;stop-opacity:0.5632"/>
	<stop  offset="0.9978" style="stop-color:#FDF3FB;stop-opacity:0.3"/>
</radialGradient>
<polygon class="st23" points="32.3,41.9 35.8,42.1 34.7,45.6 36.6,42.1 40.9,40.3 36.6,41.3 36.4,39 36.1,41.6 "/>
<polygon class="st24" points="5.7,21 14,9.5 16.6,7.7 27.3,5 38.3,7.6 41.6,9.5 49.5,20.4 49,33.9 47.5,37.8 39,47.5 32.9,49.6 
	24.2,50 17.1,47.9 6.2,34.7 "/>
<radialGradient id="SVGID_24_" cx="-25.6594" cy="113.4091" r="6.219" gradientTransform="matrix(1.2359 1.039058e-02 1.015497e-02 -1.2079 54.7991 150.4403)" gradientUnits="userSpaceOnUse">
	<stop  offset="9.895546e-02" style="stop-color:#FCFCFC"/>
	<stop  offset="1" style="stop-color:#FFFFFF;stop-opacity:0"/>
</radialGradient>
<path class="st25" d="M28.5,13.3c-1,0-1.9-0.4-2.6-1c0.2-0.4,0.4-0.7,0.7-1L29,9l0,0l-0.1-0.1l-2.4,2.3c-0.3,0.3-0.7,0.5-1,0.7
	c-0.5-0.7-0.8-1.5-0.8-2.3V5.5l0,0c-0.1,0-0.1,0-0.2,0v4c0,0.9-0.4,1.8-0.9,2.4c-0.5-0.1-1-0.4-1.4-0.8l-2-2l-0.1,0.1l2,2
	c0.4,0.4,0.6,0.8,0.8,1.3c-0.6,0.4-1.4,0.7-2.3,0.7h-3.5c0,0.1,0,0.2,0,0.2h3.5c0.8,0,1.6,0.3,2.3,0.7c-0.1,0.5-0.4,1-0.8,1.3
	L20,17.5l0.1,0.1l0,0l2.2-2.1c0.4-0.4,0.9-0.6,1.4-0.8c0.5,0.7,0.9,1.5,0.9,2.4v3.7c0.1,0,0.1,0,0.2,0l0,0v-3.7
	c0-0.9,0.3-1.6,0.8-2.3c0.4,0.2,0.8,0.4,1.1,0.7l1.8,1.7l0.1-0.1l-1.8-1.7c-0.3-0.3-0.6-0.7-0.7-1.1c0.7-0.6,1.6-1,2.6-1h3.1
	c0-0.1,0-0.2,0-0.2L28.5,13.3z"/>
<radialGradient id="SVGID_25_" cx="147.0321" cy="127.7099" r="2.7484" gradientTransform="matrix(0.9615 0.2747 0.2747 -0.9615 -129.6628 106.7824)" gradientUnits="userSpaceOnUse">
	<stop  offset="9.895546e-02" style="stop-color:#FCFCFC"/>
	<stop  offset="1" style="stop-color:#FFFFFF;stop-opacity:0"/>
</radialGradient>
<path class="st26" d="M48.2,24.9c-0.3-0.1-0.6-0.3-0.8-0.6c0.1-0.1,0.2-0.2,0.3-0.3l1-0.6l0,0c0,0,0,0,0-0.1l-1,0.6
	C47.6,24,47.4,24,47.3,24c-0.1-0.3-0.1-0.6-0.1-0.9l0.4-1.4l0,0h-0.1l-0.4,1.4c-0.1,0.3-0.3,0.6-0.6,0.8c-0.2-0.1-0.3-0.2-0.4-0.4
	l-0.4-0.9c0,0,0,0-0.1,0l0.5,0.9c0.1,0.2,0.1,0.4,0.1,0.5c-0.3,0.1-0.6,0.1-0.8,0l-1.2-0.3v0.1l1.2,0.3c0.3,0.1,0.5,0.3,0.7,0.5
	c-0.1,0.2-0.2,0.3-0.4,0.4l-0.9,0.6c0,0,0,0,0,0.1l0,0l0.9-0.5c0.2-0.1,0.4-0.1,0.6-0.1c0.1,0.3,0.2,0.6,0.1,0.9L46,27.3
	c0,0,0,0,0.1,0l0,0l0.4-1.3c0.1-0.3,0.3-0.5,0.5-0.7c0.1,0.1,0.2,0.2,0.3,0.3l0.4,0.8c0,0,0,0,0.1,0l-0.4-0.8
	c-0.1-0.1-0.1-0.3-0.1-0.5C47.5,24.9,47.9,24.9,48.2,24.9l1,0.4v-0.1L48.2,24.9z"/>
<radialGradient id="SVGID_26_" cx="62.5676" cy="61.1161" r="2.2119" gradientTransform="matrix(0.9987 5.071132e-02 5.071132e-02 -0.9987 -25.7435 69.2176)" gradientUnits="userSpaceOnUse">
	<stop  offset="9.895546e-02" style="stop-color:#FCFCFC"/>
	<stop  offset="1" style="stop-color:#FFFFFF;stop-opacity:0"/>
</radialGradient>
<path class="st27" d="M41.1,11.5c-0.3,0-0.5-0.1-0.7-0.3c0-0.1,0.1-0.2,0.2-0.3l0.7-0.6l0,0l0,0l-0.7,0.6c-0.2,0-0.3,0-0.4,0.1
	c-0.1-0.2-0.2-0.4-0.2-0.7l0.1-1.2l0,0c0,0,0,0-0.1,0l-0.1,1.2c0,0.3-0.1,0.5-0.3,0.7c-0.1,0-0.3-0.1-0.4-0.2l-0.5-0.6l0,0l0.5,0.6
	c0.1,0.1,0.2,0.3,0.2,0.4c-0.2,0.1-0.4,0.2-0.7,0.2l-1-0.1c0,0,0,0,0,0.1l1,0.1c0.2,0,0.5,0.1,0.6,0.2c0,0.1-0.1,0.3-0.2,0.4
	l-0.6,0.6l0,0l0,0l0.6-0.6c0.1-0.1,0.3-0.2,0.4-0.2c0.1,0.2,0.2,0.4,0.2,0.7l-0.1,1.1c0,0,0,0,0.1,0l0,0l0.1-1.1
	c0-0.3,0.1-0.5,0.3-0.7c0.1,0,0.2,0.1,0.3,0.2l0.5,0.5l0,0l-0.5-0.5c0-0.1-0.1-0.2-0.1-0.3C40.5,11.6,40.8,11.5,41.1,11.5l0.9,0.1
	c0,0,0,0,0-0.1H41.1z"/>
<radialGradient id="SVGID_27_" cx="-95.2896" cy="-26.9693" r="4.7789" gradientTransform="matrix(0.9647 -0.2633 -0.2633 -0.9647 94.2673 -26.0441)" gradientUnits="userSpaceOnUse">
	<stop  offset="9.895546e-02" style="stop-color:#FCFCFC"/>
	<stop  offset="1" style="stop-color:#FFFFFF;stop-opacity:0"/>
</radialGradient>
<path class="st28" d="M12,24.5c-0.6,0.2-1.2,0.1-1.7-0.2c0-0.3,0.1-0.5,0.2-0.7l1-1.8l0,0h-0.1l-1,1.8c-0.1,0.2-0.3,0.4-0.5,0.6
	c-0.4-0.3-0.7-0.8-0.9-1.3l-0.7-2.5l0,0H8.2l0.7,2.5C9.1,23.5,9,24,8.8,24.5c-0.3,0-0.6-0.1-0.9-0.2l-1.5-0.9c0,0,0,0.1-0.1,0.1
	l1.5,0.9c0.3,0.2,0.5,0.4,0.7,0.7c-0.3,0.4-0.7,0.7-1.2,0.8l-2.1,0.6v0.1L7.3,26c0.5-0.1,1-0.1,1.5,0.1c0,0.3-0.1,0.7-0.2,1
	l-1.1,1.5c0,0,0.1,0,0.1,0.1l0,0l0.9-1.6c0.2-0.3,0.4-0.5,0.7-0.7c0.4,0.3,0.8,0.8,0.9,1.3l0.6,2.3h0.1l0,0l-0.5-2.4
	c-0.1-0.5-0.1-1.1,0.1-1.5c0.3,0,0.5,0.1,0.8,0.2l1.3,0.8c0,0,0-0.1,0.1-0.1l-1.4-0.8c-0.3-0.1-0.5-0.3-0.6-0.6
	c0.3-0.5,0.8-0.9,1.4-1l1.9-0.5V24L12,24.5z"/>
</svg>
